<svg xmlns="http://www.w3.org/2000/svg" viewBox="0 0 228.72 122.04"><defs><style>.cls-1{fill:#4f8b91;}.cls-1,.cls-11,.cls-15,.cls-3,.cls-4,.cls-8,.cls-9{stroke:#107775;stroke-miterlimit:10;}.cls-2,.cls-4{fill:#fdfefe;}.cls-3{fill:#6daeaf;}.cls-5{fill:#117775;}.cls-6{fill:#107775;}.cls-7{fill:#237070;}.cls-8{fill:none;}.cls-15,.cls-8,.cls-9{stroke-width:0.75px;}.cls-15,.cls-9{font-size:32px;}.cls-11,.cls-15,.cls-23,.cls-9{fill:#fff;}.cls-11,.cls-15,.cls-17,.cls-23,.cls-9{font-family:MyriadPro-Regular, Myriad Pro;}.cls-9{letter-spacing:0em;}.cls-10{letter-spacing:0em;}.cls-11{font-size:19px;stroke-width:0.25px;}.cls-12{letter-spacing:-0.04em;}.cls-13{letter-spacing:-0.01em;}.cls-14{letter-spacing:0em;}.cls-16{letter-spacing:0em;}.cls-17{font-size:14.48px;fill:#f9f9fa;}.cls-18{letter-spacing:-0.02em;}.cls-19{letter-spacing:-0.01em;}.cls-20{letter-spacing:-0.01em;}.cls-21{letter-spacing:-0.01em;}.cls-22{letter-spacing:0em;}.cls-23{font-size:10px;}.cls-24{letter-spacing:-0.04em;}.cls-25{letter-spacing:0em;}</style></defs><title>Rogene Logo</title><g id="Layer_1" data-name="Layer 1"><path class="cls-1" d="M227.31,113.85H24.65c-6.78,0-15.89-6.9-12.28-13.22V25.72C7.23,18.77,17.87,12.5,24.65,12.5H170.52c14.12,6.85,49.17,11.26,38.06,23.65l30,59.2a.9.9,0,0,1,.18.4C238.74,106,230.91,111.66,227.31,113.85Z" transform="translate(-10.51 -12)"/><ellipse class="cls-2" cx="174.13" cy="94.95" rx="28.76" ry="27.09"/><ellipse class="cls-3" cx="174.13" cy="94.95" rx="26.47" ry="24.93"/><ellipse class="cls-2" cx="46.55" cy="94.95" rx="28.76" ry="27.09"/><ellipse class="cls-3" cx="46.55" cy="94.95" rx="26.47" ry="24.93"/><rect class="cls-4" x="8.76" y="6.88" width="62.88" height="40.01" rx="6.69" ry="6.69"/><path class="cls-4" d="M206.78,58.9c3,0,5-2.95,3.52-5.36L202.16,40c-4.59-10-27.08-20.36-39-20.36h-.66a3.83,3.83,0,0,0-4,3.62v32a3.83,3.83,0,0,0,4,3.63Z" transform="translate(-10.51 -12)"/><rect class="cls-2" x="149.23" y="55.72" width="14.76" height="2.74" rx="0.54" ry="0.54"/><path class="cls-5" d="M50,18.88H26a6.69,6.69,0,0,0-6.68,6.69v24Z" transform="translate(-10.51 -12)"/><path class="cls-6" d="M181.39,24.26c-6.54-2.8-13.29-4.59-18.22-4.59h-.66a3.83,3.83,0,0,0-4,3.62V47.15Z" transform="translate(-10.51 -12)"/><path class="cls-7" d="M31.49,113.85c3,10.64,13.32,18.49,25.57,18.49s22.56-7.85,25.58-18.49Z" transform="translate(-10.51 -12)"/><path class="cls-7" d="M159.07,113.85c3,10.64,13.32,18.49,25.57,18.49s22.56-7.85,25.58-18.49Z" transform="translate(-10.51 -12)"/><line class="cls-8" x1="10.83" y1="45.03" x2="48.7" y2="6.8"/><line class="cls-8" x1="19.14" y1="47.2" x2="59.07" y2="6.88"/><line class="cls-8" x1="29.77" y1="47.2" x2="68.62" y2="7.97"/><rect class="cls-4" x="78.38" y="6.77" width="62.88" height="40.01" rx="6.69" ry="6.69"/><path class="cls-5" d="M119.57,18.77h-24a6.69,6.69,0,0,0-6.69,6.69v24Z" transform="translate(-10.51 -12)"/><line class="cls-8" x1="80.44" y1="44.92" x2="118.31" y2="6.69"/><line class="cls-8" x1="88.75" y1="47.08" x2="128.69" y2="6.77"/><line class="cls-8" x1="99.38" y1="47.08" x2="138.23" y2="7.86"/><line class="cls-8" x1="147.99" y1="44.3" x2="176.5" y2="15.51"/></g><g id="Layer_2" data-name="Layer 2"><text class="cls-9" transform="translate(28.64 99.31) scale(1.12 1)">R<tspan class="cls-10" x="17.34" y="0">o</tspan></text><text class="cls-11" transform="translate(79.09 97.12) scale(1.12 1)">On<tspan class="cls-12" x="23.64" y="0"> </tspan><tspan class="cls-13" x="26.89" y="0">T</tspan><tspan class="cls-14" x="36.19" y="0">he</tspan></text><text class="cls-15" transform="translate(153.43 99.31) scale(1.12 1)"><tspan class="cls-16">G</tspan><tspan x="20.83" y="0">o</tspan></text><text class="cls-17" transform="translate(8.76 62.27) scale(0.92 1)"><tspan class="cls-18">P</tspan><tspan x="7.34" y="0">ersonali</tspan><tspan class="cls-19" x="54.83" y="0">z</tspan><tspan x="60.93" y="0">ed </tspan><tspan class="cls-20" x="79.42" y="0">A</tspan><tspan x="88.19" y="0">ssistan</tspan><tspan class="cls-21" x="128.59" y="0">c</tspan><tspan class="cls-22" x="134.99" y="0">e</tspan></text><text class="cls-23" transform="translate(204.15 98.12) scale(1.12 1)">L<tspan class="cls-24" x="4.72" y="0">L</tspan><tspan class="cls-25" x="9.05" y="0">C</tspan></text></g></svg>